<svg id="Layer_1" data-name="Layer 1" xmlns="http://www.w3.org/2000/svg" viewBox="0 0 542.73 542.73"><defs><style>.cls-1{fill:#da4327;}.cls-2{fill:#f9f6ea;}.cls-3{fill:#3e3938;}.cls-4{fill:#493c39;}.cls-5{fill:#424140;}.cls-6{fill:#483f3d;}.cls-7{fill:#4a413e;}.cls-8{fill:#4b3d39;}.cls-9{fill:#443b39;}.cls-10{fill:#565553;}.cls-11{fill:#464342;}.cls-12{fill:#433b39;}.cls-13{fill:#493f3c;}.cls-14{fill:#4f403c;}.cls-15{fill:#4c413f;}.cls-16{fill:#494746;}.cls-17{fill:#563f39;}.cls-18{fill:#4b3e3b;}.cls-19{fill:#4e403d;}.cls-20{fill:#444241;}.cls-21{fill:#4d413e;}.cls-22{fill:#4c3f3b;}.cls-23{fill:#4b4847;}.cls-24{fill:#4c4a48;}.cls-25{fill:#5f5b59;}.cls-26{fill:#4f4c4b;}.cls-27{fill:#6b6865;}.cls-28{fill:#554541;}.cls-29{fill:#484645;}.cls-30{fill:#4b413f;}.cls-31{fill:#4d4b49;}.cls-32{fill:#534542;}.cls-33{fill:#544440;}.cls-34{fill:#635f5d;}.cls-35{fill:#666260;}.cls-36{fill:#4b4947;}.cls-37{fill:#51423e;}.cls-38{fill:#4c4947;}.cls-39{fill:#4a4847;}.cls-40{fill:#484746;}.cls-41{fill:#605d5a;}.cls-42{fill:#464443;}.cls-43{fill:#554c49;}.cls-44{fill:#63605e;}.cls-45{fill:#565351;}.cls-46{fill:#7b493d;}.cls-47{fill:#75716e;}.cls-48{fill:#575452;}.cls-49{fill:#63615e;}.cls-50{fill:#4c4a49;}.cls-51{fill:#575553;}.cls-52{fill:#534441;}.cls-53{fill:#4a3e3a;}.cls-54{fill:#605d5b;}.cls-55{fill:#7e7a77;}.cls-56{fill:#595755;}.cls-57{fill:#5c5755;}.cls-58{fill:#64625f;}.cls-59{fill:#5f5452;}.cls-60{fill:#5d5957;}.cls-61{fill:#797673;}.cls-62{fill:#64605e;}.cls-63{fill:#64615f;}.cls-64{fill:#5e5c5a;}.cls-65{fill:#7f7d78;}.cls-66{fill:#7e493a;}.cls-67{fill:#73706d;}.cls-68{fill:#686562;}.cls-69{fill:#48403d;}.cls-70{fill:#979390;}.cls-71{fill:#615d5b;}.cls-72{fill:#73706c;}.cls-73{fill:#824536;}.cls-74{fill:#62605d;}.cls-75{fill:#706e6a;}.cls-76{fill:#8c8985;}.cls-77{fill:#615e5c;}.cls-78{fill:#4b4746;}.cls-79{fill:#5e4e4a;}.cls-80{fill:#605e5b;}.cls-81{fill:#655e5b;}.cls-82{fill:#ae948b;}.cls-83{fill:#716d6b;}.cls-84{fill:#575654;}.cls-85{fill:#989392;}.cls-86{fill:#72706d;}.cls-87{fill:#db4b2b;}.cls-88{fill:#f3eeea;}.cls-89{fill:#f3eee9;}.cls-90{fill:#f2ede9;}.cls-91{fill:#f2ece7;}.cls-92{fill:#f2ebe7;}.cls-93{fill:#f2ede8;}.cls-94{fill:#f2e8e2;}.cls-95{fill:#f2eae5;}.cls-96{fill:#f2e5df;}.cls-97{fill:#d55633;}.cls-98{fill:#efd1c6;}.cls-99{fill:#f1e3dc;}.cls-100{fill:#cc8064;}.cls-101{fill:#666460;}.cls-102{fill:#51504e;}.cls-103{fill:#555351;}.cls-104{fill:#4b4a48;}.cls-105{fill:#72706c;}.cls-106{fill:#545250;}.cls-107{fill:#656562;}.cls-108{fill:#686764;}.cls-109{fill:#d65432;}.cls-110{fill:#a6a49d;}.cls-111{fill:#4a4948;}.cls-112{fill:#f0ddd5;}.cls-113{fill:#f0d9d1;}.cls-114{fill:#f0dcd4;}.cls-115{fill:#f4dad1;}.cls-116{fill:#efcdc0;}.cls-117{fill:#f4d8ce;}.cls-118{fill:#f5e3dc;}</style></defs><path class="cls-1" d="M314.4,96.71l.85.28c.11,1.26,1,1.46,2.05,1.77,3.25,1,6.46,2.12,9.7,3.16,2.44.78,4.91,1.49,7.36,2.23l.67.42.06,0,1,.37,3.31.75,1,.14a4.6,4.6,0,0,0,1.29.84,31.46,31.46,0,0,1,7.84,3c1.8,1,3.6,2.23,5.54,2.63a50.34,50.34,0,0,1,10.39,3.83c.78.65,1.59,1.25,2.31,2s1.21.45,1.61-.32l.93.57c-.39.88,0,1.27.82,1.63a16.82,16.82,0,0,1,3,1.69c2.1,1.54,4.1,3.23,6.18,4.79,2.8,2.09,5.66,4.09,7.78,7a9.08,9.08,0,0,0,2,1.79c3.61,2.68,7.24,5.32,10.86,8a14.38,14.38,0,0,1,1.49,2.52c1,3,3.16,4.53,6.09,5.25,1.43,2,3.19,3.9,4.17,6.12a15.75,15.75,0,0,0,1.79,3.75c2.38,3.18,4.21,6.63,4.52,10.66a10.71,10.71,0,0,0,1.45,4.15,51.23,51.23,0,0,1,2.08,4.95,2.08,2.08,0,0,1-1,2.76c-1.06.64-2.11,1.3-3.16,2-2.44.3-4.92,1.05-7.29.77a20.8,20.8,0,0,0-6,.38c-1.14.19-2.77.29-3.09,2a.37.37,0,0,1-.4.14c-.14-.64-.24-1.18-1.2-1-4.19,1-8.4,2-12.61,2.93l-11.33,2-7.76,1.11c-3.17.45-6.34.88-9.5,1.36s-6.28,1.09-9.44.06a3.87,3.87,0,0,0-1.62,0q-8.22,1.07-16.43,2.16c-3.14.22-6.27.54-9.41.63-5.39.14-10.8-.48-16.19.35l-12.74.15c-.87,0-1.76-.07-2.63,0q-3.36.2-6.71.48c-2.23.2-4.37.81-6.72.56-2.72-.28-5.52.16-8.28.26-3.79.12-7.57.21-11.36.31l-9.19-.62-4,.57c-1.74.12-3.47.31-5.21.33-2.92,0-5.88-.34-8.76,0a52.57,52.57,0,0,1-6.25.47,68.66,68.66,0,0,1-8.37-.23c-5.37-.66-10.57-2.25-16.07-2.42a56.2,56.2,0,0,1-13.39-2c-1.1-.31-2.09-1.43-3.41-.62-1.94-.39-3.86-1-5.88-.61-.26-.25-.48-.66-.77-.72-5-1-10-2.16-15.13-2.35a19.63,19.63,0,0,0-3.3.43,1.88,1.88,0,0,0-.41,0,78.36,78.36,0,0,0-8.45-1c-8.2-.11-16.4,0-24.6.07-.29,0-.59.31-.88.47h-.22l-.21,0c-3.94-.35-7.89-.71-11.84-1.05-.85-.07-1.71,0-2.55-.14-2.31-.29-4.6-.62-6.91-.94-1.11,0-2.23-.05-3.34-.14A30.67,30.67,0,0,0,94,189.1a51.43,51.43,0,0,1-12.2-1.25c-1.48-.27-3-.68-3.82-2.2l-.16-1-.4-.64c.13-2.58.37-4.95,2.65-6.89a28.58,28.58,0,0,0,7.51-9A23.53,23.53,0,0,1,90,164.32c1-1.27,2.1-2.4,3.16-3.6a20,20,0,0,0,2.55-1.88,37.21,37.21,0,0,0,2.46-3c.32.09.77.37,1,.25a63.74,63.74,0,0,0,5.67-4.09c.73-.63,1-1.82,1.46-2.75l0,0c.84-.41,2-.6,2.5-1.26a58,58,0,0,1,9.85-9.07l1.86-1.16,1.09-.54a16.82,16.82,0,0,0,2.92-1.13c4.73-2.94,9.39-6,14.13-8.93,2.06-1.27,4.24-2.34,6.36-3.51a46,46,0,0,0,4.62-2.41c.63-.4.91-1.35,1.35-2a7.8,7.8,0,0,0,2.53-.55c2-1.21,3.77-2.69,5.73-3.91a31.94,31.94,0,0,1,4.8-2.46c2.88-1.17,5.82-2.19,8.74-3.27a4.1,4.1,0,0,1,1.31-.34c3.44.28,6.59-1.07,9.8-1.87,4.21-1,8.23-2.81,12.39-4.07,2.28-.69,4.67-1,7-1.45l.6-.45h0c1,0,1.77-.26,1.57-1.51l.57-.17a1.47,1.47,0,0,0,2,.63c2-1,4.13-1,6.21-1.35C221.1,97.13,228,96,234.85,94.53c5.84-1.22,11.64-.6,17.44-.88,5.64-.28,11.3.42,17,.34,4.21-.06,8.41-.45,12.64,0,3.62.38,7.27.52,10.9.75,6.75.41,13.57.71,20.14,2.68C313.64,97.61,314.19,97.53,314.4,96.71Zm49.44,79.38c-.45-1.08-1-.91-1.57-.11-.21.27-.38.69-.66.8-1.84.74-.52,1.67-.11,2.44.59,1.13,1.37.81,2.12.09a8.78,8.78,0,0,1,.86-.6c.61-.59,1.06-1.29,2.16-.59a10.9,10.9,0,0,0,3.45,1.44,14.59,14.59,0,0,0,3.74.09c.29,0,.55-.6.83-.92-.26-.19-.52-.37-.77-.58-.59-.51-1.45-.93-1.7-1.57-.57-1.46-.78-3-1.26-4.54a1.62,1.62,0,0,0-1-.91c-1.63-.35-4.15,1.25-4.93,2.94-.33.71-.78,1.36-1.18,2ZM290.36,127a9,9,0,0,0-.27,2.11c.06.51.48,1.4.78,1.41a12.88,12.88,0,0,0,4.48-.28c.55-.17.68-1.68,1-2.58a4.68,4.68,0,0,0,.09-.54c.53-2.73.53-2.73-2.25-3.28C290.78,123.19,290.33,123.55,290.36,127Zm-77.56-2.94c-1.07.39-1.83.66-2.58,1-1,.41-2.45,1-1.81,2.2.85,1.56,2.36,2.76,3.63,4.08.08.08.49-.15.73-.25.5-.22,1-.46,1.48-.69,2.94-1.37,3-1.7,1-4A30.16,30.16,0,0,0,212.8,124.08Zm-42.16,44.1c-.06-1.75-1.54-4.1-2.54-4-1.64.12-4,1.46-3.95,2.25.13,2.18,2,4.62,3.55,4.61A2.69,2.69,0,0,0,170.64,168.18Zm-50.2,3.47s.52.08.68-.12c1-1.24,2-2.52,2.87-3.83a1.05,1.05,0,0,0-.18-.95,3.81,3.81,0,0,0-5.43.28c-.28.35-.51.74-.78,1.1-1.4,1.9-1.13,2.7,1.17,3.3A16.61,16.61,0,0,0,120.44,171.65Zm88.15,6c-.16.06-1.05.11-1.42.57a10.92,10.92,0,0,0-2,3.48c-.2.68.36,1.7.8,2.43a1.44,1.44,0,0,0,1.42.17,19.52,19.52,0,0,0,3.48-3.68C211.79,179.25,210.77,177.76,208.59,177.69ZM337.1,138.91c3,.06,3.06,0,3.23-2.69.06-.84,0-2.39-.21-2.44a12.79,12.79,0,0,0-3.91-.12c-.36,0-.85.73-.92,1.18a12.39,12.39,0,0,0-.13,3.16,1.53,1.53,0,0,0,.89,1A2.12,2.12,0,0,0,337.1,138.91Zm-89.9,5.74c-1.1,1.11-2.46,2.46-3.75,3.87-.1.11.27.8.56,1.08,2.59,2.42,2.6,2.41,4.67-.65.25-.37.55-.71.78-1.1C250.29,146.43,249.34,144.71,247.2,144.65Zm137.66.7A10.38,10.38,0,0,0,383.6,143c-.19-.2-1.14.21-1.69.45a5.73,5.73,0,0,0-1.85,1.06c-.42.43-.91,1.32-.73,1.7a12.09,12.09,0,0,0,2.05,2.75,1.22,1.22,0,0,0,1.17-.06C383.38,147.79,384.09,146.57,384.86,145.35Zm-210.31-4.62c1.06.06,3.15-1.75,2.7-2.47a6,6,0,0,0-2.86-2.47c-.64-.21-2.11.7-2.51,1.47C171.36,138.26,173.43,140.67,174.55,140.73Zm102.75,29a3,3,0,0,0-.48-.71c-2.69-1.92-4.48-1.23-5.26,2,0,.09-.1.19-.07.26.11.31.2.85.38.88,1.19.24,2.6.8,3.57.4S276.7,170.68,277.3,169.68Zm38.6,4c-.8-1.54-1.37-2.81-2.1-4-.21-.33-1.08-.65-1.31-.49-.54.37-1.27,1.08-1.21,1.58a13.61,13.61,0,0,0,1.08,3.59,1.13,1.13,0,0,0,1.78.58C314.66,174.6,315.15,174.2,315.9,173.65Zm-59.24-70.12c-.06-.64.09-1.45-.24-1.79s-1.14-.36-1.75-.36c-1.54,0-1.32,1.24-1.28,2.17.05,1.34,1,1.87,2.72,1.56C257.18,104.92,257,104.22,256.66,103.53Z"/><path class="cls-2" d="M296.38,380.86l2.11-1.69.11,1.8a16.6,16.6,0,0,0,1.44-.91c1.74-1.34,3.46-2.71,5.19-4.07s3.2-2.54,4.83-3.78c.63-.49,1.5-.75,2-1.35,2.34-3,4.76-5.88,8.18-7.74a10.9,10.9,0,0,0,1.41-1.23,2.38,2.38,0,0,0,.85-2.88c1.08.46,2.13,1,3.24,1.34.31.1.76-.21,1.15-.33,1.16,2.18,3.59,2.58,5.43,3.82.19.12.75-.31,1.14-.49.12.35.23.69.34,1l.19-.16-.57-.84-3.72-2.76a9.57,9.57,0,0,0,1.07,0,7.43,7.43,0,0,1,8.07,5c-1-.49-2.06-1-3.12-1.46a3.67,3.67,0,0,0-1.2,0c.14.39.16,1,.44,1.13,1.93,1.13,3.91,2.19,5.91,3.22a3.27,3.27,0,0,0,1.19.1l-.38-1.46,1.56,1.05-.45,1.16a13.84,13.84,0,0,1-2.61,5.05c-1.72,2.17-3.12,4.59-4.65,6.91l-1,1.59c-1.36,1.1-2.77,2.15-4.06,3.32-2.55,2.3-5,4.68-7.54,7-2.24,1.92-4.6,3.71-6.69,5.78-4.2,4.15-8.19,8.51-12.4,12.64-.76.74-.4,1.2-.36,1.83l.05,0c-1.41-1.11-1.9-.07-2.36,1-2.84.6-4.49,2.6-5.86,4.95-1.8.85-7.53,6.08-8.81,8.05l-.45,1.29,0,0a8.17,8.17,0,0,0-2.32,1c-1.48,1.23-2.82,2.63-4.21,4-2.22,1.79-4.75,3.32-6.6,5.44-2.67,3.06-6,5.05-9.35,7.14-3.95,2.47-8.48,3.18-12.87,4.36a8.1,8.1,0,0,1-6.28-1.06,9.88,9.88,0,0,0-4.59-1.28c-3.63-.11-7.16-.57-10.29-2.66a7.4,7.4,0,0,0-1.75-.68c-3.36-1.17-6.69-2.42-10.09-3.47a17.85,17.85,0,0,1-4.93-2.34c-1-.67-.75-1.28-.73-2,.34-1,.64-2,1-2.95a4.85,4.85,0,0,0,0-4.3c.25-.07.71-.1.73-.2.35-2.26,1.6-4.41.93-6.8.9-1.78,2.13-3.47,1.72-5.65l.9-2.64a13.78,13.78,0,0,0,.46-1.51c.57-2.94,1.12-5.87,1.67-8.81l0-1.07.09-1.67a2,2,0,0,0,.4-.66c.59-3.39,1.16-6.79,1.74-10.19l0-2.21h0l.49-1.64c0-.69.07-1.39.11-2.08.78-4.48,1.66-8.94,2.26-13.44.12-.89,1-2.07-.14-3,1.74-1.19,1.13-3.21,1.69-4.82,1.77-5.7,1.7-11.68,2.57-17.51l.21-5.31a2.82,2.82,0,0,0-.15-3.41l.07-.58,0,.06a6.61,6.61,0,0,0,1-2c.26-3.32.38-6.64.55-10,.19-.84.4-1.67.57-2.51s-.07-1.38-1-1.37l.07-.61c.44-.23,1.22-.4,1.28-.71.34-1.85.55-3.73.72-5.61,0-.16-.6-.38-.93-.57l0-.61h1.1l.48-5a.46.46,0,0,0,.12-.42l.36-5c.05-2.64.11-5.27.12-7.91,0-.31-.28-.61-.43-.92.16-3.56.33-7.13.5-10.69a11.67,11.67,0,0,0,.49-2c.16-2.39.13-2.39,2.7-2.52l6-.39.54-.62,1.63.51,5.1-.42c.25.1.51.31.73.27a21.18,21.18,0,0,1,7.45-.11c1.5.28,3.12-.16,4.68-.28,2.89.39,5.76.81,8.65,1.13a28.64,28.64,0,0,0,3.34,0c.13.11.25.3.4.32,3.6.67,3.6.66,3.29,4.47a2.37,2.37,0,0,0,0,.53c-.12,1.15-.31,2.3-.36,3.45a69.48,69.48,0,0,1-.26,7.23,105.61,105.61,0,0,0-1.09,15c-.33,2.74-.68,5.47-1,8.21-.82,7.21-1.71,14.42-2.43,21.64-.68,6.78-1.2,13.56-1.78,20.35l-1.56,10.92c-.26,3.19-.3,6.41-.82,9.56-.86,5.19-2,10.32-3.08,15.48a15.94,15.94,0,0,0-1.68,2.1,4.35,4.35,0,0,0-.22,1.65,7.62,7.62,0,0,0,1.35,0c1.83-.31,3.69-.54,5.48-1a46,46,0,0,0,7.88-2.58,62,62,0,0,0,9.1-5.52c3.31-2.41,6.35-5.18,9.47-7.83.34-.29.42-.88.63-1.32Z"/><path class="cls-2" d="M231.57,239.73l-.49-1.83.83,1c.24-.21.73-.46.7-.62-.32-1.68.67-3.51-.53-5.09a18.94,18.94,0,0,0,.44-2.09c.33-3.35-.48-6.75.42-10.11.19-.74-.28-1.65-.44-2.48a20.34,20.34,0,0,0-.4-2.48,6.1,6.1,0,0,0-.86-1.44,12.69,12.69,0,0,0,.15-2.37c-.4-3.52-.88-7-1.33-10.53,1.69,0,3.39-.15,5.07,0a47.47,47.47,0,0,0,11.05-.14,28.5,28.5,0,0,1,10.13,0,13.59,13.59,0,0,0,3.61-.3c1.6,0,3.19.11,4.79.09,2.49,0,5-.14,7.48-.21.79,0,1.35.12,1.4,1.16.09,1.6.35,3.2.53,4.8l.39,1.62h0l0,.72,0,.25.07,1.32.11,2.11.38.71V214l0,1.38a11.23,11.23,0,0,0,.52,5.36c.22,3.26.44,6.51.67,9.77.14,1.8.22,3.61.43,5.4.37,3.1.81,6.2,1.22,9.3l.53.58,0-.07a7.66,7.66,0,0,0-.12,1.71c.61,3.85,1.22,7.71,1.93,11.54.57,3.06,1.28,6.1,1.93,9.14.51,2.54.95,5.1,1.57,7.62.32,1.31-.12,1.93-1.33,2-1.61.1-3.23,0-4.85.06a4.42,4.42,0,0,0-1.19-.44q-4.62-.39-9.24-.7c-1.85-.12-3.71-.17-5.57-.26a49,49,0,0,0-6-.5,60.3,60.3,0,0,0-6.53.91l-.72.08-2.88-.55c-1.56.16-2.86-.76-4.27-1a33,33,0,0,0-6.29-.11,1.44,1.44,0,0,0-1.59,1.69l-.14.85c-.73-.14-1.46-.27-2.19-.43s-1.36-.33-2-.5h0l-.59-.49c-.21-.53-.72-1.16-.59-1.58.67-2,1.5-3.91,2.31-5.84a44.49,44.49,0,0,0,2-4.85,16.82,16.82,0,0,0,.15-3.9c.44-.62.76-1.22-.08-1.78l-1,.07.07-.88c.86.31,1.77.85,1.74-.84s.07-3.68.07-5.52c0-3.32,0-6.64,0-10C232.89,240.27,232.75,239.53,231.57,239.73Z"/><path class="cls-2" d="M343.21,368.22l-1.56-1.05-2.84-1.49a7.43,7.43,0,0,0-8.07-5,9.57,9.57,0,0,1-1.07,0l-2.81-1.08c-1.72-.91-3.41-1.94-5.19-2.72-2-.89-2.07-.79-.62-2.42.12-.14.21-.32.36-.4,3.83-1.93,5.36-6,8.13-8.86.8-.84.73-1.62-.52-2l.65-1.16c1.07.49,1.65-.13,2.23-.9,1.58-2.08,3.29-4.07,4.77-6.21,3.62-5.24,7.13-10.56,10.73-15.81a2.07,2.07,0,0,1,1.41-.84c1.45,0,2.91.14,4.37.23,3.84.25,7.69.4,11.52.78,3.41.34,6.92.13,10.16,1.63l-.26,0h-.26c-1.14-.09-1.51.66-1.77,1.58-.48,1.67-1,3.32-1.51,5-1.36,2.62-3.05,5.11-3.39,8.15-.21.52-.43,1.05-.65,1.57l-.4.6-.4.55a.33.33,0,0,0-.22.36l-.92,2.4c-1.88,4-2.92,8.4-5.5,12.09-.24.35,0,1,0,1.54-.9-.32-1.3.23-1.67.92-1.41,2.59-2.86,5.16-4.22,7.78a8.06,8.06,0,0,0-.41,2c-.48,2.32-.85,4.68-1.5,7-.45,1.55-.6,1.47-1.93.42s-2.78-2.16-4.22-3.17C344.87,369.07,344,368.68,343.21,368.22Z"/><path class="cls-3" d="M374.86,320.86c-3.24-1.5-6.75-1.29-10.16-1.63-3.83-.38-7.68-.53-11.52-.78-1.46-.09-2.92-.26-4.37-.23a2.07,2.07,0,0,0-1.41.84c-3.6,5.25-7.11,10.57-10.73,15.81-1.48,2.14-3.19,4.13-4.77,6.21-.58.77-1.16,1.39-2.23.9,3.28-4.49,6.59-9,9.83-13.49,2-2.76,3.89-5.59,5.8-8.4a2.32,2.32,0,0,0,.53-1.22c0-.4-.37-1.09-.64-1.12-4-.5-8-1-12-1.34-5.34-.49-10.78.16-16-1.53-1.25-.4-2.59-.51-3.88-.79a8.77,8.77,0,0,1-5.41-4.07c-1.65-2.42-1.39-4.8-.62-7.29a38.49,38.49,0,0,1,1.59-4c1.35-3,4.38-4.47,6.38-6.89.68-.82,1.59-1.44,2.32-2.23,1.62-1.75,3.78-2.61,5.81-3.71.84-.46,1.62-1,2.43-1.56l-.05,0a11,11,0,0,1,4.56-3.56,39.19,39.19,0,0,0,5.93-3.54c2.63-1.77,5.67-2.41,8.59-3.38-.87.56-1.78,1.08-2.6,1.71-.18.15-.08.67-.11,1l-1,.19c-.53-1.17-1.21-.31-1.71-.05a5.42,5.42,0,0,0-1.44,1.27c-.07.06.21.44.33.68l-.53.17-.45.3-2.36,1.83a.68.68,0,0,0-.42.08l-2.27,1c-3,1.14-5.31,3.43-7.93,5.2-4.09,2.74-7.43,6.35-11.05,9.65a10.94,10.94,0,0,0-4,7.71c-.35,4.23.68,6.42,4.58,7.75a9.06,9.06,0,0,0,2.34.64c3.91.28,7.83.49,11.74.71,3.47.2,6.95.21,10.38.63,2.74.34,5.4,1.29,8.13,1.73a58,58,0,0,0,6.2.43c3.3.18,6.62.16,9.89.56,3,.38,6.11-.37,9.17.57a66.06,66.06,0,0,0,8.33,1.53c3.54.61,7.08,1.3,10.64,1.8,4.12.59,8,2.35,12.19,2.59a7.17,7.17,0,0,1,3.11.7,11.25,11.25,0,0,0,4.94,1.16c2.08.18,3.66-1.68,3-3.38-1.11-3.06-1.07-6.28-1.52-9.43.61.26,1.23.54,1.13-.58,1.11,1.53.73,3.39,1.11,5.08.29,1.31.5,2.64.89,3.92.75,2.43-.1,4.65-2.43,5.57a7.73,7.73,0,0,1-5.65.3,109,109,0,0,0-24-5.12C380.53,321.58,377.7,321.2,374.86,320.86Z"/><path class="cls-4" d="M314.4,96.71c-.21.82-.76.9-1.46.69-6.57-2-13.39-2.27-20.14-2.68-3.63-.23-7.28-.37-10.9-.75-4.23-.43-8.43,0-12.64,0-5.67.08-11.33-.62-17-.34-5.8.28-11.6-.34-17.44.88C228,96,221.1,97.13,214.22,98.45c-2.08.4-4.26.3-6.21,1.35a1.47,1.47,0,0,1-2-.63c2.29-.65,4.56-1.41,6.88-1.93,3.59-.8,7.21-1.44,10.82-2.13,3.14-.61,6.29-1.18,9.44-1.76,10.11-1.87,20.26-1.42,30.44-.85,4.37.24,8.77-.1,13.16-.06,2.75,0,5.51.27,8.26.43a20.46,20.46,0,0,0,4,.28,31.17,31.17,0,0,1,9.35.45c4.59.67,9.2,1.24,13.78,2A8.35,8.35,0,0,1,314.4,96.71Z"/><path class="cls-3" d="M342.11,276.67c0-.35-.07-.87.11-1,.82-.63,1.73-1.15,2.6-1.71.06-.06.11-.17.19-.19,3.49-.89,6.95-1.88,10.47-2.63,5-1.06,9.94-.12,14.92,1,8.7,2,16,6.62,23,11.71,3.46,2.51,6.47,5.64,9.69,8.49,4.17,3.69,6.21,8.69,8.28,13.65.62,1.47,1.1,3,1.64,4.5l.39,1.14.13.53c.1,1.12-.52.84-1.13.58-.71-1.66-1.5-3.28-2.1-5A29.84,29.84,0,0,0,404.32,297c-2.58-2.77-5.06-5.63-7.61-8.42s-6-4.27-8.94-6.43a54.42,54.42,0,0,0-13.2-6.93c-6.68-2.49-13.46-3.8-20.51-1.76-3.66,1.06-7.28,2.29-10.91,3.44Z"/><path class="cls-5" d="M212,437.08c0,.76-.23,1.37.73,2a17.85,17.85,0,0,0,4.93,2.34c3.4,1.05,6.73,2.3,10.09,3.47a7.4,7.4,0,0,1,1.75.68c3.13,2.09,6.66,2.55,10.29,2.66a9.88,9.88,0,0,1,4.59,1.28,8.1,8.1,0,0,0,6.28,1.06c4.39-1.18,8.92-1.89,12.87-4.36,3.33-2.09,6.68-4.08,9.35-7.14,1.85-2.12,4.38-3.65,6.6-5.44l1.25,0a28,28,0,0,1-2.88,3.15c-4.29,3.47-7.85,7.86-13.05,10.18-1.72.77-3.26,2-5,2.55-3.19,1-6.5,1.66-9.72,2.6-2.13.62-4-.21-5.66-1.12-2-1.15-4.07-1.25-6.18-1.54a43.64,43.64,0,0,1-4.47-.51c-1.35-.34-2.59-1.13-3.92-1.61-4.29-1.58-8.63-3-12.89-4.7a34.62,34.62,0,0,1-5.41-2.87,3.05,3.05,0,0,1-1.39-1.88c-.08-.56.68-1.23,1-1.87a4.93,4.93,0,0,0,.31-.75Z"/><path class="cls-6" d="M259.92,201.17a13.59,13.59,0,0,1-3.61.3,28.5,28.5,0,0,0-10.13,0,47.47,47.47,0,0,1-11.05.14c-1.68-.11-3.38,0-5.07,0l-1.8.35c-4,0-8,.09-12,.08-3.07,0-5.9-1.22-8.85-1.77-3.4-.63-6.94-.45-10.38-.92-4.2-.58-8.36-1.43-12.52-2.24-.54-.1-1-.64-1.51-1v-.69c1.32-.81,2.31.31,3.41.62a56.2,56.2,0,0,0,13.39,2c5.5.17,10.7,1.76,16.07,2.42a68.66,68.66,0,0,0,8.37.23,52.57,52.57,0,0,0,6.25-.47c2.88-.36,5.84,0,8.76,0,1.74,0,3.47-.21,5.21-.33a3.88,3.88,0,0,0,4-.57l9.19.62Z"/><path class="cls-7" d="M259.92,201.17,257.71,200c3.79-.1,7.57-.19,11.36-.31,2.76-.1,5.56-.54,8.28-.26,2.35.25,4.49-.36,6.72-.56s4.47-.35,6.71-.48c.87,0,1.76,0,2.63,0l12.74-.15,1.08,1a15.83,15.83,0,0,1-2.61.51c-6.91.26-13.82.43-20.72.7-2.25.09-4.43.83-6.77.3-1.52-.34-2,.34-2,1.95,0,1.42,0,2.84,0,4.25l0,.55h0l-1-.56c-.18-1.6-.44-3.2-.53-4.8,0-1-.61-1.18-1.4-1.16-2.5.07-5,.18-7.48.21C263.11,201.28,261.52,201.21,259.92,201.17Z"/><path class="cls-8" d="M331.75,197.31q8.21-1.08,16.43-2.16a3.87,3.87,0,0,1,1.62,0c3.16,1,6.29.43,9.44-.06s6.33-.91,9.5-1.36l7.76-1.11.53.94c-.43.29-.84.76-1.3.83-4.22.61-8.46,1.13-12.68,1.73-1.76.24-3.49.67-5.25.88a17.53,17.53,0,0,1-4.83.25c-3.73-.64-7.32.12-11,.6-2.28.31-4.59.37-6.88.54-1.17,0-2.33,0-3.49-.06-.16,0-.31-.28-.46-.44Z"/><path class="cls-9" d="M401,143.16c-3.62-2.65-7.25-5.29-10.86-8a9.08,9.08,0,0,1-2-1.79c-2.12-2.87-5-4.87-7.78-7-2.08-1.56-4.08-3.25-6.18-4.79a16.82,16.82,0,0,0-3-1.69c-.78-.36-1.21-.75-.82-1.63,1.25.4,2.73.5,3.71,1.25a173.63,173.63,0,0,1,14,11.35,104.47,104.47,0,0,0,13.66,10.57,20.21,20.21,0,0,1,5.9,6l-.14.85c-.73-.51-1.5-1-2.18-1.53C403.79,145.63,402.4,144.39,401,143.16Z"/><path class="cls-10" d="M271.37,359.56c.58-6.79,1.1-13.57,1.78-20.35.72-7.22,1.61-14.43,2.43-21.64.32-2.74.67-5.47,1-8.21l.67.09a11.67,11.67,0,0,1,.42,2.89c-.39,3.47-1,6.93-1.41,10.4-.6,4.65-1.21,9.29-1.68,13.95s-.82,9.49-1.16,14.24c-.24,3.24-.38,6.47-.57,9.71-.16-.48-.33-1-.47-1.44-.1-.31-.15-.62-.23-.93a9.34,9.34,0,0,1-.41.91A2.65,2.65,0,0,1,271.37,359.56Z"/><path class="cls-11" d="M296.38,380.86l1.54.14c-.21.44-.29,1-.63,1.32-3.12,2.65-6.16,5.42-9.47,7.83a62,62,0,0,1-9.1,5.52,46,46,0,0,1-7.88,2.58c-1.79.49-3.65.72-5.48,1a7.62,7.62,0,0,1-1.35,0,4.35,4.35,0,0,1,.22-1.65,15.94,15.94,0,0,1,1.68-2.1l1.12.14a1.61,1.61,0,0,0,.08.38l-.71,1.43a8.47,8.47,0,0,0,1.24,0A38.85,38.85,0,0,0,283,391.37a95.45,95.45,0,0,0,10.64-7.64C294.64,382.86,295.48,381.82,296.38,380.86Z"/><path class="cls-12" d="M418.4,185.28c1.05-.66,2.1-1.32,3.16-2a2.08,2.08,0,0,0,1-2.76,51.23,51.23,0,0,0-2.08-4.95,10.71,10.71,0,0,1-1.45-4.15c-.31-4-2.14-7.48-4.52-10.66l.14-1.36a16.93,16.93,0,0,1,5.64,9.71,53.24,53.24,0,0,0,2.62,7.59c.3.85.69,1.67,1,2.52,1.12,3.36-.59,6-4.29,6.59Z"/><path class="cls-13" d="M123.6,191.83c.29-.16.59-.47.88-.47,8.2-.06,16.4-.18,24.6-.07a78.36,78.36,0,0,1,8.45,1l-2.92.65c-2.33,0-4.66-.1-7-.09-4.39,0-8.78.1-13.17.16-2.89,0-5.79.14-8.68.05C125,193,123.6,193.5,123.6,191.83Z"/><path class="cls-14" d="M203.19,101.31c-2.34.47-4.73.76-7,1.45-4.16,1.26-8.18,3-12.39,4.07-3.21.8-6.36,2.15-9.8,1.87a4.1,4.1,0,0,0-1.31.34l-1.14-.64c3.15-.85,6.27-1.81,9.46-2.51,3.76-.83,7.3-2.32,11-3.39,3.41-1,6.7-3.09,10.54-2.27l1.32.62h0Z"/><path class="cls-4" d="M93.15,160.72c-1.06,1.2-2.2,2.33-3.16,3.6a23.53,23.53,0,0,0-2.42,3.83,28.58,28.58,0,0,1-7.51,9c-2.28,1.94-2.52,4.31-2.65,6.89l.4.64.16,1-1,1.22-.22-.87a5.93,5.93,0,0,0,0-1.83c-.14-.44-.71-.74-1.09-1.11-.13-3.95,2.52-6.3,5-8.77a36.74,36.74,0,0,0,5.21-6.52c1.78-2.79,3.47-6,6.75-7.55h0l.53.52Z"/><path class="cls-15" d="M365.47,116.12a50.34,50.34,0,0,0-10.39-3.83c-1.94-.4-3.74-1.65-5.54-2.63a31.46,31.46,0,0,0-7.84-3,4.6,4.6,0,0,1-1.29-.84l1.16-.71a61.34,61.34,0,0,1,6.84,2.22c3.92,1.81,7.88,3.45,11.95,4.89,2.19.78,4.78,1,6.33,3.2Z"/><path class="cls-16" d="M343.21,368.22c.81.46,1.66.85,2.42,1.38,1.44,1,2.84,2.07,4.22,3.17s1.48,1.13,1.93-.42c.65-2.27,1-4.63,1.5-7a8.06,8.06,0,0,1,.41-2c1.36-2.62,2.81-5.19,4.22-7.78.37-.69.77-1.24,1.67-.92l-.07-.05c.05.36.1.73.16,1.09-2.69,3.82-5,7.8-5.5,12.58a22.92,22.92,0,0,1-.75,4.21c-.57,1.93-1.63,2.91-3.83,1.74a4.59,4.59,0,0,1-1.72-1.24,6.28,6.28,0,0,0-3.6-2.49l-1.51-1.15Z"/><path class="cls-16" d="M303.42,413.52c0-.63-.4-1.09.36-1.83,4.21-4.13,8.2-8.49,12.4-12.64,2.09-2.07,4.45-3.86,6.69-5.78l1.28.64c-4.09,3.93-8.35,7.67-12.17,11.9C309.41,408.64,306.29,411,303.42,413.52Z"/><path class="cls-17" d="M331.75,197.31l-.58.54c.15.16.3.44.46.44,1.16.05,2.32.05,3.49.06-2.22.31-4.42.74-6.65.89a134.75,134.75,0,0,1-18.85.06c-.79-.06-1.6,0-2.39,0l-1.08-1c5.39-.83,10.8-.21,16.19-.35C325.48,197.85,328.61,197.53,331.75,197.31Z"/><path class="cls-18" d="M144.91,123.69c-2.12,1.17-4.3,2.24-6.36,3.51-4.74,2.94-9.4,6-14.13,8.93a16.82,16.82,0,0,1-2.92,1.13l0-1.06c3.12-2.06,6.19-4.18,9.36-6.16,3.66-2.27,7.39-4.41,11.11-6.59a5.19,5.19,0,0,1,1.29-.33Z"/><path class="cls-19" d="M339.37,105.73l-3.31-.75-1-.37-.06,0-.67-.42c-2.45-.74-4.92-1.45-7.36-2.23-3.24-1-6.45-2.17-9.7-3.16-1-.31-1.94-.51-2.05-1.77a8,8,0,0,1,2.3.05q6.81,2.19,13.58,4.57c.62.22,1.09.87,1.63,1.32l1.75,0,.54.2.72.27a.25.25,0,0,1,.36.13l1.74.45a.41.41,0,0,1,.44.11l1.15.43v0C339.42,104.93,339.4,105.33,339.37,105.73Z"/><path class="cls-20" d="M329,343.14c1.25.39,1.32,1.17.52,2-2.77,2.9-4.3,6.93-8.13,8.86-.15.08-.24.26-.36.4-1.45,1.63-1.41,1.53.62,2.42,1.78.78,3.47,1.81,5.19,2.72a3.68,3.68,0,0,0,0,.47c-.39.12-.84.43-1.15.33-1.11-.37-2.16-.88-3.24-1.34l.07,0-1.12-.57-1.21-.36c-2.83-.85-3.1-1.84-1-3.81a22.93,22.93,0,0,1,2.64-2.29,12.71,12.71,0,0,0,4-4.34A48.29,48.29,0,0,1,329,343.14Z"/><path class="cls-21" d="M77,186.87l1-1.22c.81,1.52,2.34,1.93,3.82,2.2A51.43,51.43,0,0,0,94,189.1a30.67,30.67,0,0,1,4.54.47c1.11.09,2.23.1,3.34.14l0,1a28.44,28.44,0,0,1-4,.36c-3.54-.17-7.09-.35-10.6-.78a54.85,54.85,0,0,1-7.79-1.67A9.59,9.59,0,0,1,77,186.87Z"/><path class="cls-22" d="M171.54,108.4l1.14.64c-2.92,1.08-5.86,2.1-8.74,3.27a31.94,31.94,0,0,0-4.8,2.46c-2,1.22-3.76,2.7-5.73,3.91a7.8,7.8,0,0,1-2.53.55,1.29,1.29,0,0,0,0-.48c1-.72,2-1.51,3-2.16,5.12-3.23,10.29-6.39,16.15-8.18A5.44,5.44,0,0,1,171.54,108.4Z"/><path class="cls-23" d="M322.47,359a2.38,2.38,0,0,1-.85,2.88,10.9,10.9,0,0,1-1.41,1.23c-3.42,1.86-5.84,4.74-8.18,7.74-.47.6-1.34.86-2,1.35-1.63,1.24-3.22,2.52-4.83,3.78l-.79-.79c1.86-1.5,3.72-3,5.57-4.5a11.16,11.16,0,0,0,1.13-1.15c1.6-1.81,3.17-3.65,4.81-5.42a5.74,5.74,0,0,1,1.73-1.23,7.67,7.67,0,0,0,3.71-3.4l1.15-.47Z"/><path class="cls-24" d="M277.49,277.74c1.62,0,3.24,0,4.85-.06,1.21-.07,1.65-.69,1.33-2-.62-2.52-1.06-5.08-1.57-7.62l1.11.52c.67,2.72,1.39,5.42,2,8.16a1.83,1.83,0,0,1-1.63,2.44,14,14,0,0,1-2.05.07c-1.3,0-1.83.49-1.79,1.93a12,12,0,0,1-.85,3.19l-.59-.65a2.37,2.37,0,0,1,0-.53c.31-3.81.31-3.8-3.29-4.47-.15,0-.27-.21-.4-.32Z"/><path class="cls-25" d="M267,395.66l-1.12-.14c1-5.16,2.22-10.29,3.08-15.48.52-3.15.56-6.37.82-9.56l1,2.17c.09,7.26-2,14.17-3.3,21.22l0,.63v1Z"/><path class="cls-26" d="M283.21,268.58l-1.11-.52c-.65-3-1.36-6.08-1.93-9.14-.71-3.83-1.32-7.69-1.93-11.54a7.66,7.66,0,0,1,.12-1.71c1.06,0,1.06.78,1.19,1.47.48,2.59,1,5.17,1.41,7.76C281.73,259.45,282.46,264,283.21,268.58Z"/><path class="cls-27" d="M278.29,283.72l.59.65a50.09,50.09,0,0,1-.36,11.67c-.3,2.54-.07,5.14-.28,7.7-.16,1.92-.65,3.81-1,5.71l-.67-.09a105.61,105.61,0,0,1,1.09-15,69.48,69.48,0,0,0,.26-7.23C278,286,278.17,284.87,278.29,283.72Z"/><path class="cls-28" d="M101.89,190.7l0-1c2.31.32,4.6.65,6.91.94.84.1,1.7.07,2.55.14,4,.34,7.9.7,11.84,1.05-.26.43-.47,1.19-.78,1.23a15.13,15.13,0,0,1-3.8.13c-4.73-.56-9.44-1.23-14.15-1.89A25.52,25.52,0,0,1,101.89,190.7Z"/><path class="cls-29" d="M231,258.37l1-.07c0,.59.05,1.18.08,1.78A16.82,16.82,0,0,1,232,264a44.49,44.49,0,0,1-2,4.85c-.81,1.93-1.64,3.86-2.31,5.84-.13.42.38,1.05.59,1.58l.59.49h0l0,1.09-.54,0-1.16-.49c-1.57-1.94-1.44-1.88-.53-3.93,1.53-3.45,3-6.93,4.23-10.5C231.28,261.54,231,259.89,231,258.37Z"/><path class="cls-30" d="M418.4,185.28l1.21.57a13.94,13.94,0,0,1-10.28,1.86c-1.38-.28-2.94.37-4.43.55-.95.11-1.91.13-2.86.19.32-1.73,1.95-1.83,3.09-2a20.8,20.8,0,0,1,6-.38C413.48,186.33,416,185.58,418.4,185.28Z"/><path class="cls-26" d="M231.57,239.73c1.18-.2,1.32.54,1.33,1.44,0,3.32,0,6.64,0,10,0,1.84-.11,3.68-.07,5.52s-.88,1.15-1.74.84a25.56,25.56,0,0,0,.33-3.13c0-4.54-.13-9.09-.18-13.63A3.21,3.21,0,0,1,231.57,239.73Z"/><path class="cls-31" d="M270.78,372.65l-1-2.17,1.56-10.92a2.65,2.65,0,0,0,.37-.38,9.34,9.34,0,0,0,.41-.91c.08.31.13.62.23.93.14.48.31,1,.47,1.44C272.64,364.73,272.36,368.8,270.78,372.65Zm.26-4.32c-.06.06-.14.11-.15.17s.08.12.12.18.15-.1.16-.15S271.09,368.41,271,368.33Z"/><path class="cls-32" d="M118.55,139A58,58,0,0,0,108.7,148c-.55.66-1.66.85-2.5,1.26a46.79,46.79,0,0,1,9.36-9.75c1-.81,2.14-1.52,3.21-2.28Z"/><path class="cls-33" d="M387.83,190.57c4.21-1,8.42-1.92,12.61-2.93,1-.23,1.06.31,1.2,1-.56.19-1.11.41-1.69.55q-5.37,1.34-10.76,2.64a2.36,2.36,0,0,1-.78-.08l-.63-.4,0,0Z"/><path class="cls-34" d="M228.69,346c-.87,5.83-.8,11.81-2.57,17.51l-.48-2.24c0-.15,0-.29,0-.44,0-.64,0-1.28,0-1.92q.83-6.36,1.66-12.7a1.94,1.94,0,0,0,.43-.27Z"/><path class="cls-35" d="M224.43,368.28c1.16.91.26,2.09.14,3-.6,4.5-1.48,9-2.26,13.44-.81-.91-.52.73-1.06.46v-1.45l.33-1.79,1.8-11.42.47-1.12.07-.56a.44.44,0,0,0,.05-.51l0,0,.26,0h.27Z"/><path class="cls-16" d="M324.15,393.91l-1.28-.64c2.51-2.34,5-4.72,7.54-7,1.29-1.17,2.7-2.22,4.06-3.32l.63.61a10.88,10.88,0,0,1-1.4,1.92C330.54,388.31,327.34,391.1,324.15,393.91Z"/><path class="cls-36" d="M277.87,245.16c-.41-3.1-.85-6.2-1.22-9.3-.21-1.79-.29-3.6-.43-5.4h1c.59,4.53,1.19,9,1.74,13.57.05.38-.28.79-.43,1.19Z"/><path class="cls-37" d="M414.67,159.44l-.14,1.36a15.75,15.75,0,0,1-1.79-3.75c-1-2.22-2.74-4.1-4.17-6.12l-1.16-2.58.14-.85c.47.26,1.12.4,1.37.79,2.06,3.19,4.68,6.06,5.65,9.87A7.71,7.71,0,0,1,414.67,159.44Z"/><path class="cls-38" d="M342.76,369.38l1.51,1.15c-1.64,2.51-3.23,5.07-4.94,7.53-.95,1.39-2.11,2.63-3.18,3.93-.22-.22-.44-.43-.65-.65,1.53-2.32,2.93-4.74,4.65-6.91A13.84,13.84,0,0,0,342.76,369.38Z"/><path class="cls-39" d="M359.58,354.69c0-.52-.24-1.19,0-1.54,2.58-3.69,3.62-8.08,5.5-12.09h1.1a43,43,0,0,1-5.56,13l-.63.5,0,0a.48.48,0,0,0-.51.09Z"/><path class="cls-20" d="M233.23,282.84c-.17,3.56-.34,7.13-.5,10.69l-.66,2.3a11.32,11.32,0,0,1-.64-5.94c.37-3.08.49-6.2.72-9.31l.48-1.64.54-.57Z"/><path class="cls-40" d="M232.5,218.5c.16.83.63,1.74.44,2.48-.9,3.36-.09,6.76-.42,10.11a18.94,18.94,0,0,1-.44,2.09l-1-1.09q.19-6.19.4-12.39v-1.31h0Z"/><path class="cls-13" d="M157.94,192.27a19.63,19.63,0,0,1,3.3-.43c5.13.19,10.12,1.35,15.13,2.35.29.06.51.47.77.72l-2.34.22h0l-.23-.43-.28.39-.54,0-2.41-.48a.24.24,0,0,1-.34-.18l-1.7-.36,0,0c-.93-1.33-2.27-.37-3.39-.6l-.18.08-.18-.07a1.78,1.78,0,0,0-2.74-.11l-.57-.05c-.42-.6-.77-.53-1.07.1h0l-.53,0h0l-.55-.06-.55.09Z"/><path class="cls-41" d="M228.26,202l1.8-.35c.45,3.5.93,7,1.33,10.53a12.69,12.69,0,0,1-.15,2.37l-.71.07c-.33-2-.71-4-1-6s-.49-4-.76-6.07C228.74,202.36,228.43,202.2,228.26,202Z"/><path class="cls-42" d="M286.44,427.49c1.28-2,7-7.2,8.81-8.05V421l-8.11,7.21Z"/><path class="cls-43" d="M387.83,190.57l0,.77A20.45,20.45,0,0,1,377,193.52l-.53-.94Z"/><path class="cls-44" d="M219.42,404.22c-.55,2.94-1.1,5.87-1.67,8.81a13.78,13.78,0,0,1-.46,1.51l-.57.12c-1-1.31-.34-2.75-.1-4,.41-2.17,1.19-4.26,1.81-6.38Z"/><path class="cls-45" d="M275.55,220.69a11.23,11.23,0,0,1-.52-5.36l0-1.38v-.22l-.38-.71-.11-2.11-.07-1.32,0-.25,0-.72h0l.67,0h0l.37.62.15,2.71.51,2.73q.21,3,.41,6Z"/><path class="cls-46" d="M106.24,149.26c-.48.93-.73,2.12-1.46,2.75a63.74,63.74,0,0,1-5.67,4.09c-.18.12-.63-.16-1-.25l-.63-.53a23.52,23.52,0,0,0,6.76-4.76A12.72,12.72,0,0,1,106.24,149.26Z"/><path class="cls-47" d="M230.34,324.72c-.17,3.32-.29,6.64-.55,10a6.61,6.61,0,0,1-1,2c-1-2.08.23-4.18,0-6.28a16,16,0,0,1,.1-2.93l.56-.6,0,0,.36-.23-.37-.41a4.17,4.17,0,0,1,0-.5Z"/><path class="cls-48" d="M275.55,220.69l1.06,0,.59,9.81h-1C276,227.2,275.77,224,275.55,220.69Z"/><path class="cls-49" d="M221.67,390.63c-.58,3.4-1.15,6.8-1.74,10.19a2,2,0,0,1-.4.66l-.93-1-.1-1c.13-.08.28-.15.42-.22l.52.22-.3-1.2-.23,0q.87-4.09,1.76-8.19Z"/><path class="cls-50" d="M295.26,421v-1.59c1.37-2.35,3-4.35,5.86-4.95l.7.65h0l-.56.52C298.76,416.88,297.32,419.3,295.26,421Z"/><path class="cls-51" d="M367.67,335.58c.34-3,2-5.53,3.39-8.15h1.05l-3.78,8.19Z"/><path class="cls-52" d="M150.87,118.75a1.29,1.29,0,0,1,0,.48c-.44.7-.72,1.65-1.35,2a46,46,0,0,1-4.62,2.41l-1.67-.57Z"/><path class="cls-45" d="M304.44,375.2l.79.79c-1.73,1.36-3.45,2.73-5.19,4.07a16.6,16.6,0,0,1-1.44.91l-.11-1.8A23.79,23.79,0,0,1,304.44,375.2Z"/><path class="cls-53" d="M97.53,155.32l.63.53a37.21,37.21,0,0,1-2.46,3,20,20,0,0,1-2.55,1.88l0,0-.53-.52h0c1.21-1.51,2.39-3,3.65-4.5C96.54,155.44,97.11,155.44,97.53,155.32Z"/><path class="cls-54" d="M280.75,433.71l-1.25,0c1.39-1.34,2.73-2.74,4.21-4a8.17,8.17,0,0,1,2.32-1c0,.25,0,.6-.16.73C284.18,430.9,282.46,432.3,280.75,433.71Z"/><path class="cls-55" d="M233,302.36l-.36,5a4.76,4.76,0,0,0-.1-.52c-.07-.29-.17-.58-.25-.87-.09.23-.28.49-.23.7a5.65,5.65,0,0,0,.46,1.11l-.48,5c-.18-.73-.35-1.46-.52-2.2q.28-3,.56-6L232,304l.06-.56v-.54l.06-.55Z"/><path class="cls-56" d="M231,232.09l1,1.09c1.2,1.58.21,3.41.53,5.09,0,.16-.46.41-.7.62l-.83-1Z"/><path class="cls-57" d="M214.67,422.83c.67,2.39-.58,4.54-.93,6.8,0,.1-.48.13-.73.2l-.09-1.31c.39-2.28.79-4.57,1.18-6.85Z"/><path class="cls-58" d="M231,313.34c.33.19.95.41.93.57-.17,1.88-.38,3.76-.72,5.61-.06.31-.84.48-1.28.71Q230.48,316.79,231,313.34Z"/><path class="cls-59" d="M174.8,195.13l2.34-.22c2-.42,3.94.22,5.88.61v.69a30,30,0,0,1-3.91-.07A43.21,43.21,0,0,1,174.8,195.13Z"/><path class="cls-60" d="M225.64,361.22l.48,2.24c-.56,1.61,0,3.63-1.69,4.82l0,0-.56-.61.05-1.41.34-.71C224.75,364.12,225.2,362.67,225.64,361.22Z"/><path class="cls-61" d="M233,302.36h-.89v-4.95c.6-.44.52-.79-.13-1.08a.42.42,0,0,1,0-.5l.66-2.3c.15.31.43.61.43.92C233.15,297.09,233.09,299.72,233,302.36Z"/><path class="cls-62" d="M212.92,428.52l.09,1.31a4.85,4.85,0,0,1,0,4.3c-.38,1-.68,2-1,2.95l-.52-1.74Q212.21,431.94,212.92,428.52Z"/><path class="cls-63" d="M372.11,327.43h-1.05c.51-1.66,1-3.31,1.51-5,.26-.92.63-1.67,1.77-1.58-.4,1.22-.78,2.44-1.2,3.65C372.82,325.5,372.46,326.46,372.11,327.43Z"/><path class="cls-48" d="M228.69,346l-1-.06c0-1.07,0-2.13-.05-3.2.2-.92.41-1.83.61-2.74l.65.69Z"/><path class="cls-64" d="M214.67,422.83l-.57-1.16,1.19-3.78,1.1-.71C216.8,419.36,215.57,421.05,214.67,422.83Z"/><path class="cls-65" d="M233.17,278.37l-.54.57h-.44c-.61-.18-1.22-.35-1.83-.55s-1-.38-1.56-.57l0-1.09c.68.17,1.36.35,2,.5s1.46.29,2.19.43Z"/><path class="cls-66" d="M365.47,116.12l1.22-.65,2.7,2.29c-.4.77-.84,1.07-1.61.32S366.25,116.77,365.47,116.12Z"/><path class="cls-67" d="M230.34,324.72l-1,1.06.51-4.94c1,0,1.21.54,1,1.37S230.53,323.88,230.34,324.72Z"/><path class="cls-68" d="M230.53,214.65l.71-.07a6.1,6.1,0,0,1,.86,1.44,20.34,20.34,0,0,1,.4,2.48l-1.07-.11Z"/><path class="cls-69" d="M157.94,192.27l1.68,1.15-5-.51,2.92-.65A1.88,1.88,0,0,1,157.94,192.27Z"/><path class="cls-70" d="M216.39,417.18l-1.1.71,1.43-3.23.57-.12Z"/><path class="cls-71" d="M221.25,385.16c.54.27.25-1.37,1.06-.46,0,.69-.07,1.39-.11,2.08s-.32,1.1-.49,1.64h0l-.6-1.15a2.19,2.19,0,0,1,0-.36l0-1.29A.93.93,0,0,1,221.25,385.16Z"/><path class="cls-72" d="M335.5,381.34c.21.22.43.43.65.65l-1,1.55-.63-.61Z"/><path class="cls-73" d="M203.82,100.85l-1.32-.62,2.89-.89C205.59,100.59,204.86,100.89,203.82,100.85Z"/><path class="cls-74" d="M301.81,415.14l-.7-.65c.46-1.08.95-2.12,2.36-1Z"/><path class="cls-75" d="M228.9,340.64l-.65-.69.17-2.72h.33A2.82,2.82,0,0,1,228.9,340.64Z"/><path class="cls-51" d="M366.62,337.75l.4-.6.82.83a1.12,1.12,0,0,0,.05.36l-.19,0c-.16.23-.31.47-.46.71a.46.46,0,0,1-.12.39l-.49.47-.55.06-.08-1.28a.33.33,0,0,1,.22-.36Z"/><path class="cls-76" d="M221.11,387.27l.6,1.15,0,2.21-1-.54C220.81,389.15,221,388.21,221.11,387.27Z"/><path class="cls-77" d="M218.6,400.44l.93,1-.09,1.67h-1.05Z"/><path class="cls-78" d="M121.48,136.2l0,1.06-1.09.54c-.81.19-1.15-.13-1-.94Z"/><path class="cls-79" d="M339.37,105.73c0-.4.05-.8.08-1.19l2.12.62-1.16.71Z"/><path class="cls-80" d="M367.84,338l-.82-.83c.22-.52.44-1,.65-1.57l.66,0-.06,2.2A1.72,1.72,0,0,0,367.84,338Z"/><path class="cls-21" d="M75.68,183.06c.38.37.95.67,1.09,1.11a5.93,5.93,0,0,1,0,1.83Z"/><path class="cls-69" d="M162.9,193.37a1.78,1.78,0,0,1,2.74.11Z"/><path class="cls-81" d="M231.56,310.53c.17.74.34,1.47.52,2.2H231Z"/><path class="cls-69" d="M166,193.47c1.12.23,2.46-.73,3.39.6Z"/><path class="cls-82" d="M119.37,136.86c-.11.81.23,1.13,1,.94L118.55,139l.22-1.7Z"/><path class="cls-83" d="M276.2,214.66l-.51-2.73Z"/><path class="cls-80" d="M366,338.66l.08,1.28.1,1.12h-1.1Z"/><path class="cls-2" d="M227.64,342.69l.05,3.2a1.94,1.94,0,0,1-.43.27Z"/><path class="cls-84" d="M218.39,403.14h1.05l0,1.07-1,0Z"/><path class="cls-69" d="M171.38,194.57l2.41.48Z"/><path class="cls-83" d="M275.18,208.61l-.67,0-.39-1.62,1,.56Z"/><path class="cls-79" d="M337.87,104l-1.74-.45Z"/><path class="cls-69" d="M169.34,194l1.7.36Z"/><path class="cls-20" d="M232,296.33c.65.29.73.64.13,1.08Z"/><path class="cls-54" d="M286.44,427.49l.71.75-1.16.54Z"/><path class="cls-79" d="M334.51,103l-1.75,0Z"/><path class="cls-85" d="M227.59,282.24l.47.29-.43.58c-.14-.12-.42-.28-.4-.36A1.7,1.7,0,0,1,227.59,282.24Z"/><path class="cls-2" d="M221.58,381.92l-.33,1.79Z"/><path class="cls-86" d="M232.19,279h.44l-.48,1.64Z"/><path class="cls-2" d="M225.6,358.86c0,.64,0,1.28,0,1.92C225.6,360.14,225.6,359.5,225.6,358.86Z"/><path class="cls-2" d="M322.54,359l-1.15.47,0-1Z"/><path class="cls-76" d="M221.1,385.62l0,1.29Z"/><path class="cls-65" d="M227.1,277.36l1.16.49Z"/><path class="cls-2" d="M359.51,354.64a.48.48,0,0,1,.51-.09c-.12.39-.24.79-.35,1.18C359.61,355.37,359.56,355,359.51,354.64Z"/><path class="cls-68" d="M231.44,218.39v0Z"/><path class="cls-3" d="M413.36,311.61l-.39-1.14Z"/><path class="cls-2" d="M218.92,399.21c-.14.07-.29.14-.42.22l.41-1.15.23,0Z"/><path class="cls-69" d="M161.26,193.42c.3-.63.65-.7,1.07-.1Z"/><path class="cls-79" d="M339.46,104.56l-1.15-.43Z"/><path class="cls-2" d="M232,304l.08.55Z"/><path class="cls-2" d="M223.85,369.38l-.47,1.12Z"/><path class="cls-2" d="M224,368.31a.44.44,0,0,1-.05.51l-.38-.29Z"/><path class="cls-2" d="M223.92,367.69l.56.61h-.27l-.26,0Z"/><path class="cls-79" d="M335.77,103.44l-.72-.27Z"/><path class="cls-2" d="M224.31,365.57l-.34.71Z"/><path class="cls-26" d="M277.87,245.16l.64.06a.69.69,0,0,1-.11.52Z"/><path class="cls-43" d="M387.78,191.3l.63.4Z"/><path class="cls-69" d="M160.74,193.4l.53,0Z"/><path class="cls-2" d="M360,354.59l.63-.5Z"/><path class="cls-80" d="M366.63,339.88l.49-.47Z"/><path class="cls-2" d="M267.45,394.5l0-.63Z"/><path class="cls-2" d="M267,395.66l.43-.2-.35.58A1.61,1.61,0,0,1,267,395.66Z"/><path class="cls-80" d="M367.24,339c.15-.24.3-.48.46-.71C367.54,338.54,367.39,338.78,367.24,339Z"/><path class="cls-2" d="M367.84,338a1.72,1.72,0,0,1,.43-.16l-.38.52A1.12,1.12,0,0,1,367.84,338Z"/><path class="cls-47" d="M228.75,337.23h-.33l.4-.58Z"/><path class="cls-83" d="M275.54,209.22l-.37-.62Z"/><path class="cls-83" d="M275.1,207.56l0-.55Z"/><path class="cls-74" d="M301.25,415.65l.56-.52Z"/><path class="cls-69" d="M160.17,193.33l.55.06Z"/><path class="cls-2" d="M229.4,326.9l-.56.6Z"/><path class="cls-2" d="M229.37,326.28l.37.41-.36.23Z"/><path class="cls-69" d="M174.33,195.08l.28-.39.23.43-.26,0Z"/><path class="cls-3" d="M325.79,284.38l-.39-.22.34.26Z"/><path class="cls-61" d="M232.09,302.91v0Z"/><path class="cls-87" d="M363.8,176.11c.4-.68.85-1.33,1.18-2,.78-1.69,3.3-3.29,4.93-2.94a1.62,1.62,0,0,1,1,.91c.48,1.5.69,3.08,1.26,4.54.25.64,1.11,1.06,1.7,1.57.25.21.51.39.77.58-.28.32-.54.9-.83.92a14.59,14.59,0,0,1-3.74-.09,10.9,10.9,0,0,1-3.45-1.44c-1.1-.7-1.55,0-2.16.59Z"/><path class="cls-88" d="M290.36,127c0-3.47.42-3.83,3.82-3.16,2.78.55,2.78.55,2.25,3.28a4.68,4.68,0,0,1-.09.54c-.31.9-.44,2.41-1,2.58a12.88,12.88,0,0,1-4.48.28c-.3,0-.72-.9-.78-1.41A9,9,0,0,1,290.36,127Z"/><path class="cls-89" d="M212.8,124.08a30.16,30.16,0,0,1,2.43,2.27c2.06,2.33,2,2.66-1,4-.49.23-1,.47-1.48.69-.24.1-.65.33-.73.25-1.27-1.32-2.78-2.52-3.63-4.08-.64-1.16.79-1.79,1.81-2.2C211,124.74,211.73,124.47,212.8,124.08Z"/><path class="cls-90" d="M170.64,168.18A2.69,2.69,0,0,1,167.7,171c-1.55,0-3.42-2.43-3.55-4.61,0-.79,2.31-2.13,3.95-2.25C169.1,164.08,170.58,166.43,170.64,168.18Z"/><path class="cls-91" d="M120.44,171.65a16.61,16.61,0,0,1-1.67-.22c-2.3-.6-2.57-1.4-1.17-3.3.27-.36.5-.75.78-1.1a3.81,3.81,0,0,1,5.43-.28,1.05,1.05,0,0,1,.18.95c-.91,1.31-1.86,2.59-2.87,3.83C121,171.73,120.46,171.65,120.44,171.65Z"/><path class="cls-92" d="M208.59,177.69c2.18.07,3.2,1.56,2.29,3a19.52,19.52,0,0,1-3.48,3.68,1.44,1.44,0,0,1-1.42-.17c-.44-.73-1-1.75-.8-2.43a10.92,10.92,0,0,1,2-3.48C207.54,177.8,208.43,177.75,208.59,177.69Z"/><path class="cls-90" d="M337.1,138.91a2.12,2.12,0,0,1-1.05.09,1.53,1.53,0,0,1-.89-1,12.39,12.39,0,0,1,.13-3.16c.07-.45.56-1.15.92-1.18a12.79,12.79,0,0,1,3.91.12c.24.05.27,1.6.21,2.44C340.16,139,340.11,139,337.1,138.91Z"/><path class="cls-93" d="M247.2,144.65c2.14.06,3.09,1.78,2.26,3.2-.23.39-.53.73-.78,1.1-2.07,3.06-2.08,3.07-4.67.65-.29-.28-.66-1-.56-1.08C244.74,147.11,246.1,145.76,247.2,144.65Z"/><path class="cls-94" d="M384.86,145.35c-.77,1.22-1.48,2.44-2.31,3.56a1.22,1.22,0,0,1-1.17.06,12.09,12.09,0,0,1-2.05-2.75c-.18-.38.31-1.27.73-1.7a5.73,5.73,0,0,1,1.85-1.06c.55-.24,1.5-.65,1.69-.45A10.38,10.38,0,0,1,384.86,145.35Z"/><path class="cls-95" d="M174.55,140.73c-1.12-.06-3.19-2.47-2.67-3.47.4-.77,1.87-1.68,2.51-1.47a6,6,0,0,1,2.86,2.47C177.7,139,175.61,140.79,174.55,140.73Z"/><path class="cls-91" d="M277.3,169.68c-.6,1-1,2.49-1.86,2.85s-2.38-.16-3.57-.4c-.18,0-.27-.57-.38-.88,0-.07.05-.17.07-.26.78-3.25,2.57-3.94,5.26-2A3,3,0,0,1,277.3,169.68Z"/><path class="cls-96" d="M315.9,173.65c-.75.55-1.24.95-1.76,1.29a1.13,1.13,0,0,1-1.78-.58,13.61,13.61,0,0,1-1.08-3.59c-.06-.5.67-1.21,1.21-1.58.23-.16,1.1.16,1.31.49C314.53,170.84,315.1,172.11,315.9,173.65Z"/><path class="cls-97" d="M407.41,148.35l1.16,2.58c-2.93-.72-5.09-2.27-6.09-5.25a14.38,14.38,0,0,0-1.49-2.52c1.41,1.23,2.8,2.47,4.24,3.66C405.91,147.39,406.68,147.84,407.41,148.35Z"/><path class="cls-98" d="M256.66,103.53c.38.69.52,1.39-.55,1.58-1.72.31-2.67-.22-2.72-1.56,0-.93-.26-2.15,1.28-2.17.61,0,1.42,0,1.75.36S256.6,102.89,256.66,103.53Z"/><path class="cls-99" d="M363.8,176.11l.68,2.6a8.78,8.78,0,0,0-.86.6c-.75.72-1.53,1-2.12-.09-.41-.77-1.73-1.7.11-2.44.28-.11.45-.53.66-.8l1.57.11Z"/><path class="cls-100" d="M248.52,199.41a3.88,3.88,0,0,1-4,.57Z"/><path class="cls-87" d="M363.84,176.09l-1.57-.11C362.85,175.18,363.39,175,363.84,176.09Z"/><path class="cls-79" d="M335.09,104.61l1,.37Z"/><path class="cls-79" d="M334.36,104.15l.67.42Z"/><path class="cls-21" d="M77.81,184.68l-.4-.64Z"/><path class="cls-73" d="M203.19,101.31l.6-.45Z"/><path class="cls-101" d="M277.49,277.74l-2.93.66a28.64,28.64,0,0,1-3.34,0c-2.89-.32-5.76-.74-8.65-1.13l-1.08-.94c1.86.09,3.72.14,5.57.26q4.62.31,9.24.7A4.42,4.42,0,0,1,277.49,277.74Z"/><path class="cls-102" d="M261.49,276.34l1.08.94c-1.56.12-3.18.56-4.68.28a21.18,21.18,0,0,0-7.45.11c-.22,0-.48-.17-.73-.27l-.69-.08-.08-.57a60.3,60.3,0,0,1,6.53-.91A49,49,0,0,1,261.49,276.34Z"/><path class="cls-103" d="M338.81,365.68l2.84,1.49.38,1.46a3.27,3.27,0,0,1-1.19-.1c-2-1-4-2.09-5.91-3.22-.28-.16-.3-.74-.44-1.13a3.67,3.67,0,0,1,1.2,0C336.75,364.66,337.77,365.19,338.81,365.68Z"/><path class="cls-104" d="M326.86,360a3.68,3.68,0,0,1,0-.47l2.81,1.08,3.72,2.76,0,0c-.39.18-.95.61-1.14.49C330.45,362.6,328,362.2,326.86,360Z"/><path class="cls-105" d="M242.44,277.93l-6,.39-.53-1,4.93,0,.54.42.2-.29-.71-.15,3.23-.43.53.92-1.63-.51Z"/><path class="cls-86" d="M235.89,277.33l.53,1c-2.57.13-2.54.13-2.7,2.52a11.67,11.67,0,0,1-.49,2l-.06-4.47-.12-.7.14-.85Z"/><path class="cls-64" d="M244.61,277.82l-.53-.92,1.26-.62,2.88.55.8.49.69.08Z"/><path class="cls-106" d="M232.56,307.77a5.65,5.65,0,0,1-.46-1.11c0-.21.14-.47.23-.7.08.29.18.58.25.87a4.76,4.76,0,0,1,.1.52A.46.46,0,0,1,232.56,307.77Z"/><path class="cls-76" d="M221.71,388.42c.17-.54.33-1.09.49-1.64C222,387.33,221.88,387.88,221.71,388.42Z"/><path class="cls-107" d="M333.39,363.39l.57.84-.19.16c-.11-.35-.22-.69-.34-1Z"/><path class="cls-108" d="M242.44,277.93l.54-.62Z"/><path class="cls-2" d="M245.34,276.28l-1.26.62-3.23.43,0,0-4.93,0-2.7-.51a1.44,1.44,0,0,1,1.59-1.69,33,33,0,0,1,6.29.11C242.48,275.52,243.78,276.44,245.34,276.28Z"/><path class="cls-26" d="M232.15,260.08c0-.6-.05-1.19-.08-1.78C232.91,258.86,232.59,259.46,232.15,260.08Z"/><path class="cls-83" d="M275,214l0,1.38Z"/><path class="cls-83" d="M274.46,209.59l.07,1.32Z"/><path class="cls-65" d="M228.83,276.74l-.59-.49Z"/><path class="cls-83" d="M274.64,213l.38.71Z"/><path class="cls-83" d="M274.52,208.62l0,.72Z"/><path class="cls-2" d="M249,277.32l-.8-.49.72-.08Z"/><path class="cls-80" d="M366.62,337.75l-.4.55Z"/><path class="cls-1" d="M343.15,276.92c3.63-1.15,7.25-2.38,10.91-3.44,7.05-2,13.83-.73,20.51,1.76a54.42,54.42,0,0,1,13.2,6.93c3,2.16,6.41,3.66,8.94,6.43s5,5.65,7.61,8.42a29.84,29.84,0,0,1,5.94,10.72c.6,1.7,1.39,3.32,2.1,5,.45,3.15.41,6.37,1.52,9.43.63,1.7-.95,3.56-3,3.38a11.25,11.25,0,0,1-4.94-1.16,7.17,7.17,0,0,0-3.11-.7c-4.2-.24-8.07-2-12.19-2.59-3.56-.5-7.1-1.19-10.64-1.8a66.06,66.06,0,0,1-8.33-1.53c-3.06-.94-6.12-.19-9.17-.57-3.27-.4-6.59-.38-9.89-.56a58,58,0,0,1-6.2-.43c-2.73-.44-5.39-1.39-8.13-1.73-3.43-.42-6.91-.43-10.38-.63-3.91-.22-7.83-.43-11.74-.71a9.06,9.06,0,0,1-2.34-.64c-3.9-1.33-4.93-3.52-4.58-7.75a10.94,10.94,0,0,1,4-7.71c3.62-3.3,7-6.91,11.05-9.65,2.62-1.77,4.89-4.06,7.93-5.2,1,.11,1.85.06,2.27-1a.68.68,0,0,1,.42-.08,11.38,11.38,0,0,0,5.87-2.25C341.61,278.23,342.36,277.55,343.15,276.92Zm-3.34,8.28c-.36-.29-.8-.89-1.36-1-.82-.2-1.81,1.1-1.69,2.31a1.59,1.59,0,0,0,1.14,1.06C339.2,287.65,339.44,286.55,339.81,285.2Zm39.35,3.19a10.28,10.28,0,0,0-2.5-1.18c-1-.1-1.45.64-1.44,1.57,0,1.17,1,1.31,1.75,1.2S378.14,289.17,379.16,288.39Zm8.5,14L385.81,304c.58.57,1.15,1.55,1.76,1.57s1.17-1,1.75-1.52Zm12.76,1.36c-.71,1-1.38,1.54-1.46,2.16-.06.37.73,1.06,1.26,1.27a1.17,1.17,0,0,0,1.65-1.18C401.85,305.42,401.13,304.83,400.42,303.78Zm-44.5-5.5,1.82-2a6.46,6.46,0,0,0-1.53-1.31c-.62-.26-1.58.94-1.42,1.85C354.86,297.25,355.36,297.59,355.92,298.28Zm4.23,11.15a14,14,0,0,0,1.64-2.19c.1-.22-.42-1-.77-1.12a1.69,1.69,0,0,0-1.93,1.74C359.15,308.28,359.59,308.64,360.15,309.43Zm.43-32.13a11.83,11.83,0,0,0-1.48,1.79c-.06.11.55.81.93.9,1,.22,1.29-.46,1.25-1.27C361.26,278.36,361,278,360.58,277.3Zm-32.09,25.82c-.68-.4-1.12-.87-1.44-.8-.48.1-.88.59-1.31.91.4.42.78,1.13,1.21,1.17S327.81,303.73,328.49,303.12Z"/><path class="cls-109" d="M343.15,276.92c-.79.63-1.54,1.31-2.37,1.89a11.38,11.38,0,0,1-5.87,2.25l2.36-1.83.45-.3.53-.17,2.82-1.9,1-.19Z"/><path class="cls-3" d="M341.07,276.86l-2.82,1.9c-.12-.24-.4-.62-.33-.68a5.42,5.42,0,0,1,1.44-1.27C339.86,276.55,340.54,275.69,341.07,276.86Z"/><path class="cls-109" d="M334.49,281.14c-.42,1.09-1.31,1.14-2.27,1Z"/><path class="cls-3" d="M337.72,278.93l-.45.3Z"/><path class="cls-1" d="M92.65,160.22l.53.52Z"/><path class="cls-110" d="M271,368.33c0,.08.13.14.13.2s-.1.1-.16.15-.12-.12-.12-.18S271,368.39,271,368.33Z"/><path class="cls-111" d="M218.92,399.21l.22-1,.3,1.2Z"/><path class="cls-108" d="M240.85,277.33l.71.15-.2.29-.54-.42Z"/><path class="cls-112" d="M339.81,285.2c-.37,1.35-.61,2.45-1.91,2.34a1.59,1.59,0,0,1-1.14-1.06c-.12-1.21.87-2.51,1.69-2.31C339,284.31,339.45,284.91,339.81,285.2Z"/><path class="cls-113" d="M379.16,288.39c-1,.78-1.56,1.49-2.19,1.59s-1.75,0-1.75-1.2c0-.93.48-1.67,1.44-1.57A10.28,10.28,0,0,1,379.16,288.39Z"/><path class="cls-114" d="M387.66,302.42l1.66,1.67c-.58.55-1.19,1.54-1.75,1.52s-1.18-1-1.76-1.57Z"/><path class="cls-115" d="M400.42,303.78c.71,1.05,1.43,1.64,1.45,2.25a1.17,1.17,0,0,1-1.65,1.18c-.53-.21-1.32-.9-1.26-1.27C399,305.32,399.71,304.77,400.42,303.78Z"/><path class="cls-116" d="M355.92,298.28c-.56-.69-1.06-1-1.13-1.45-.16-.91.8-2.11,1.42-1.85a6.46,6.46,0,0,1,1.53,1.31Z"/><path class="cls-117" d="M360.15,309.43c-.56-.79-1-1.15-1.06-1.57a1.69,1.69,0,0,1,1.93-1.74c.35.1.87.9.77,1.12A14,14,0,0,1,360.15,309.43Z"/><path class="cls-115" d="M360.58,277.3c.37.73.68,1.06.7,1.42,0,.81-.3,1.49-1.25,1.27-.38-.09-1-.79-.93-.9A11.83,11.83,0,0,1,360.58,277.3Z"/><path class="cls-118" d="M328.49,303.12c-.68.61-1.14,1.31-1.54,1.28s-.81-.75-1.21-1.17c.43-.32.83-.81,1.31-.91C327.37,302.25,327.81,302.72,328.49,303.12Z"/></svg>